<svg width="20" height="20" viewBox="0 0 20 20" fill="none" xmlns="http://www.w3.org/2000/svg">
<path fill-rule="evenodd" clip-rule="evenodd" d="M10.0003 1.0415C9.49638 1.0415 9.03237 1.16674 8.52431 1.37686C8.03372 1.57974 7.46393 1.87876 6.75441 2.25111L5.03148 3.15526C4.16067 3.61223 3.46379 3.97793 2.92572 4.33726C2.36827 4.70954 1.93893 5.10151 1.62626 5.63249C1.31464 6.16168 1.17446 6.7347 1.10723 7.41711C1.04198 8.07948 1.04199 8.89413 1.04199 9.91864V10.081C1.04199 11.1055 1.04198 11.9202 1.10723 12.5826C1.17446 13.265 1.31464 13.838 1.62626 14.3672C1.93893 14.8982 2.36827 15.2901 2.92572 15.6624C3.46379 16.0217 4.16066 16.3874 5.03147 16.8444L6.75433 17.7485C7.46389 18.1209 8.03371 18.4199 8.52431 18.6228C9.03237 18.8329 9.49638 18.9582 10.0003 18.9582C10.5043 18.9582 10.9683 18.8329 11.4763 18.6228C11.9669 18.4199 12.5367 18.1209 13.2462 17.7486L14.9691 16.8444C15.84 16.3875 16.5369 16.0217 17.0749 15.6624C17.6324 15.2901 18.0617 14.8982 18.3744 14.3672C18.686 13.838 18.8262 13.265 18.8934 12.5826C18.9587 11.9202 18.9587 11.1056 18.9587 10.081V9.91863C18.9587 8.89412 18.9587 8.07948 18.8934 7.41711C18.8262 6.7347 18.686 6.16168 18.3744 5.63249C18.0617 5.10151 17.6324 4.70954 17.0749 4.33726C16.5369 3.97793 15.84 3.61223 14.9692 3.15526L13.2463 2.25112C12.5367 1.87877 11.9669 1.57974 11.4763 1.37686C10.9683 1.16674 10.5043 1.0415 10.0003 1.0415ZM7.30933 3.37157C8.05076 2.98248 8.57033 2.7105 9.00202 2.53197C9.42219 2.3582 9.71737 2.2915 10.0003 2.2915C10.2833 2.2915 10.5785 2.35821 10.9986 2.53197C11.4303 2.7105 11.9499 2.98248 12.6913 3.37157L14.358 4.24619C15.2661 4.72273 15.9041 5.05844 16.3807 5.37677C16.6159 5.53382 16.8007 5.67965 16.9499 5.82629L14.1743 7.21407L7.09112 3.48608L7.30933 3.37157ZM5.78754 4.17016L5.64266 4.24619C4.73458 4.72273 4.0966 5.05844 3.61992 5.37677C3.38475 5.53382 3.19996 5.67966 3.05077 5.82629L10.0003 9.30107L12.798 7.90224L5.95923 4.30291C5.89279 4.26794 5.83525 4.2227 5.78754 4.17016ZM2.44839 6.92264C2.40631 7.10088 2.3745 7.30328 2.35121 7.53965C2.29269 8.13367 2.29199 8.88684 2.29199 9.9511V10.0486C2.29199 11.1128 2.29269 11.866 2.35121 12.46C2.40844 13.041 2.51717 13.4167 2.70339 13.7329C2.88855 14.0474 3.15638 14.3133 3.61992 14.6229C4.0966 14.9412 4.73458 15.2769 5.64266 15.7535L7.30933 16.6281C8.05076 17.0172 8.57033 17.2892 9.00202 17.4677C9.13832 17.5241 9.26147 17.5692 9.37532 17.6044V10.3861L2.44839 6.92264ZM10.6253 17.6044C10.7392 17.5692 10.8623 17.5241 10.9986 17.4677C11.4303 17.2892 11.9499 17.0172 12.6913 16.6281L14.358 15.7535C15.2661 15.2769 15.9041 14.9412 16.3807 14.6229C16.8443 14.3133 17.1121 14.0474 17.2973 13.7329C17.4835 13.4167 17.5922 13.041 17.6494 12.46C17.708 11.866 17.7087 11.1128 17.7087 10.0486V9.9511C17.7087 8.88684 17.708 8.13367 17.6494 7.53965C17.6262 7.30327 17.5943 7.10088 17.5523 6.92264L14.792 8.30277V10.8332C14.792 11.1783 14.5122 11.4582 14.167 11.4582C13.8218 11.4582 13.542 11.1783 13.542 10.8332V8.92777L10.6253 10.3861V17.6044Z" fill="#899BB3"/>
</svg>
