<svg width="20" height="20" viewBox="0 0 20 20" fill="none" xmlns="http://www.w3.org/2000/svg">
<path d="M15.4678 11.6826C17.051 11.6826 18.3338 12.9436 18.334 14.499C18.334 16.0537 17.0511 17.3145 15.4678 17.3145C13.8854 17.3144 12.6025 16.0536 12.6025 14.499C12.6027 12.9437 13.8856 11.6827 15.4678 11.6826ZM8.40332 13.2979C9.09672 13.298 9.65918 13.8519 9.65918 14.5332C9.65892 15.2133 9.09656 15.7674 8.40332 15.7676H2.92383C2.23047 15.7676 1.66725 15.2134 1.66699 14.5332C1.66699 13.8519 2.23031 13.2979 2.92383 13.2979H8.40332ZM4.5332 2.5C6.11629 2.50026 7.39842 3.76096 7.39844 5.31543C7.39844 6.87083 6.1163 8.13158 4.5332 8.13184C2.9508 8.13184 1.66699 6.87099 1.66699 5.31543C1.66701 3.7608 2.95082 2.5 4.5332 2.5ZM17.0781 4.08203C17.7707 4.08204 18.334 4.63501 18.334 5.31543C18.334 5.99678 17.7707 6.5498 17.0781 6.5498H11.5986C10.9051 6.5498 10.3418 5.99678 10.3418 5.31543C10.3418 4.635 10.9051 4.08203 11.5986 4.08203H17.0781Z" fill="white"/>
</svg>
