<svg width="20" height="20" viewBox="0 0 20 20" fill="none" xmlns="http://www.w3.org/2000/svg">
<path d="M7.61297 17.311V14.7629C7.61297 14.1124 8.14413 13.5851 8.79935 13.5851H11.1945C11.5091 13.5851 11.8109 13.7092 12.0334 13.93C12.2559 14.1509 12.3809 14.4505 12.3809 14.7629V17.311C12.3789 17.5814 12.4857 17.8414 12.6776 18.0333C12.8695 18.2252 13.1307 18.3332 13.4031 18.3332H15.0372C15.8003 18.3351 16.5329 18.0355 17.0733 17.5005C17.6136 16.9655 17.9173 16.239 17.9173 15.4814V8.22222C17.9173 7.61022 17.644 7.02971 17.1712 6.63706L11.6123 2.22973C10.6454 1.45697 9.25991 1.48192 8.32181 2.28899L2.88983 6.63706C2.3946 7.01813 2.09861 7.60037 2.08398 8.22222V15.4739C2.08398 17.053 3.37347 18.3332 4.96413 18.3332H6.56089C7.12667 18.3332 7.58648 17.88 7.59058 17.3184L7.61297 17.311Z" fill="#292929"/>
</svg>
