<svg width="24" height="24" viewBox="0 0 24 24" fill="none" xmlns="http://www.w3.org/2000/svg">
<path fill-rule="evenodd" clip-rule="evenodd" d="M1.16602 12.4004C1.16602 9.61562 2.27226 6.9449 4.24139 4.97577C6.21053 3.00664 8.88124 1.90039 11.666 1.90039C14.4508 1.90039 17.1215 3.00664 19.0906 4.97577C21.0598 6.9449 22.166 9.61562 22.166 12.4004C22.166 15.1852 21.0598 17.8559 19.0906 19.825C17.1215 21.7941 14.4508 22.9004 11.666 22.9004C8.88124 22.9004 6.21053 21.7941 4.24139 19.825C2.27226 17.8559 1.16602 15.1852 1.16602 12.4004ZM11.0668 16.8944L17.112 9.33719L16.02 8.46359L10.8652 14.905L7.21402 11.8628L6.31802 12.938L11.0668 16.8944Z" fill="#292929"/>
</svg>
