<svg width="28" height="28" viewBox="0 0 28 28" fill="none" xmlns="http://www.w3.org/2000/svg">
<mask id="mask0_51_236" style="mask-type:luminance" maskUnits="userSpaceOnUse" x="3" y="1" width="23" height="21">
<path fill-rule="evenodd" clip-rule="evenodd" d="M3.5 1.1665H25.0797V21.4058H3.5V1.1665Z" fill="white"/>
</mask>
<g mask="url(#mask0_51_236)">
<path fill-rule="evenodd" clip-rule="evenodd" d="M14.2882 2.9165C10.2107 2.9165 7.36868 6.11084 7.36868 8.97734C7.36868 11.4028 6.69552 12.524 6.10052 13.5133C5.62335 14.3078 5.24652 14.9355 5.24652 16.2993C5.44135 18.4997 6.89385 19.6558 14.2882 19.6558C21.6417 19.6558 23.1397 18.4483 23.3334 16.2235C23.3299 14.9355 22.953 14.3078 22.4758 13.5133C21.8808 12.524 21.2077 11.4028 21.2077 8.97734C21.2077 6.11084 18.3657 2.9165 14.2882 2.9165ZM14.2882 21.4058C8.83285 21.4058 3.90252 21.0208 3.50002 16.374C3.49652 14.4513 4.08335 13.4737 4.60135 12.6127C5.12518 11.74 5.61868 10.9175 5.61868 8.97734C5.61868 5.2055 9.10235 1.1665 14.2882 1.1665C19.474 1.1665 22.9577 5.2055 22.9577 8.97734C22.9577 10.9175 23.4512 11.74 23.975 12.6127C24.493 13.4737 25.0798 14.4513 25.0798 16.2993C24.6727 21.0208 19.7435 21.4058 14.2882 21.4058Z" fill="black"/>
</g>
<path fill-rule="evenodd" clip-rule="evenodd" d="M14.2312 26.2502H14.2289C12.921 26.249 11.6832 25.6727 10.744 24.6262C10.4209 24.268 10.45 23.7139 10.8094 23.3919C11.1687 23.0675 11.7217 23.0967 12.0449 23.4572C12.6492 24.1304 13.425 24.5002 14.23 24.5002H14.2312C15.0397 24.5002 15.819 24.1304 16.4245 23.456C16.7489 23.0979 17.3019 23.0687 17.66 23.3919C18.0194 23.715 18.0485 24.2692 17.7254 24.6274C16.7827 25.6739 15.5425 26.2502 14.2312 26.2502Z" fill="black"/>
</svg>
