<svg width="20" height="20" viewBox="0 0 20 20" fill="none" xmlns="http://www.w3.org/2000/svg">
<mask id="mask0_51_254" style="mask-type:luminance" maskUnits="userSpaceOnUse" x="3" y="12" width="14" height="7">
<path fill-rule="evenodd" clip-rule="evenodd" d="M3.33398 12.0801H16.5339V18.2251H3.33398V12.0801Z" fill="white"/>
</mask>
<g mask="url(#mask0_51_254)">
<path fill-rule="evenodd" clip-rule="evenodd" d="M9.93482 13.3301C6.38398 13.3301 4.58398 13.9401 4.58398 15.1442C4.58398 16.3592 6.38398 16.9751 9.93482 16.9751C13.4848 16.9751 15.284 16.3651 15.284 15.1609C15.284 13.9459 13.4848 13.3301 9.93482 13.3301ZM9.93482 18.2251C8.30232 18.2251 3.33398 18.2251 3.33398 15.1442C3.33398 12.3976 7.10148 12.0801 9.93482 12.0801C11.5673 12.0801 16.534 12.0801 16.534 15.1609C16.534 17.9076 12.7673 18.2251 9.93482 18.2251Z" fill="#899BB3"/>
</g>
<mask id="mask1_51_254" style="mask-type:luminance" maskUnits="userSpaceOnUse" x="5" y="1" width="10" height="10">
<path fill-rule="evenodd" clip-rule="evenodd" d="M5.50879 1.6665H14.3588V10.5153H5.50879V1.6665Z" fill="white"/>
</mask>
<g mask="url(#mask1_51_254)">
<path fill-rule="evenodd" clip-rule="evenodd" d="M9.93465 2.8565C8.15048 2.8565 6.69882 4.30734 6.69882 6.0915C6.69298 7.86984 8.13382 9.31984 9.91048 9.3265L9.93465 9.9215V9.3265C11.718 9.3265 13.1688 7.87484 13.1688 6.0915C13.1688 4.30734 11.718 2.8565 9.93465 2.8565ZM9.93465 10.5157H9.90798C7.47298 10.5082 5.50048 8.52234 5.50882 6.089C5.50882 3.6515 7.49382 1.6665 9.93465 1.6665C12.3746 1.6665 14.3588 3.6515 14.3588 6.0915C14.3588 8.5315 12.3746 10.5157 9.93465 10.5157Z" fill="#899BB3"/>
</g>
</svg>
