<svg width="20" height="20" viewBox="0 0 20 20" fill="none" xmlns="http://www.w3.org/2000/svg">
<path d="M9.59961 2.41162C9.68516 2.41162 9.98768 2.48707 10.3135 3.14209V3.14307L11.7217 5.95947C11.8852 6.29029 12.1544 6.56687 12.4258 6.76709C12.6991 6.96873 13.0431 7.14322 13.4053 7.20361H13.4062L15.957 7.62646V7.62744C16.6437 7.74188 16.8105 8.00197 16.8398 8.09326C16.8686 8.18306 16.886 8.48873 16.3926 8.979L14.4062 10.9653C14.1259 11.2457 13.9429 11.6154 13.8428 11.9653C13.7425 12.3156 13.7031 12.7244 13.7891 13.1079L13.79 13.1128L14.3574 15.5679C14.5668 16.4766 14.3361 16.7229 14.3076 16.7437C14.2766 16.7659 13.9686 16.9082 13.166 16.4341H13.167L10.7754 15.0181C10.4154 14.8048 9.98798 14.7212 9.60352 14.7212C9.21848 14.7212 8.7925 14.8052 8.43164 15.0151L8.42676 15.0181L6.03418 16.4341V16.4351C5.2373 16.908 4.9284 16.764 4.89648 16.7407C4.86435 16.7169 4.63581 16.4675 4.84375 15.5688L5.41113 13.1128L5.41211 13.1079C5.49808 12.7244 5.45866 12.3156 5.3584 11.9653C5.25823 11.6154 5.07532 11.2457 4.79492 10.9653L2.81152 8.98096C2.32053 8.48996 2.33605 8.1827 2.36523 8.09131C2.39457 8.00027 2.55892 7.74066 3.24316 7.62646L5.7959 7.20361L5.79785 7.20264C6.15696 7.14166 6.49947 6.96708 6.77051 6.76611C7.03988 6.56638 7.30824 6.29003 7.47168 5.95947L8.87891 3.14209C9.20821 2.48793 9.51266 2.41168 9.59961 2.41162Z" fill="#FABF35" stroke="#FABF35" stroke-width="1.5" stroke-linecap="round" stroke-linejoin="round"/>
</svg>
