<svg width="20" height="15" viewBox="0 0 20 15" fill="none" xmlns="http://www.w3.org/2000/svg">
<path d="M18.9414 3.18881C19.5215 3.76206 19.771 4.48386 19.8877 5.34111C20 6.1668 20 7.21664 20 8.51912V8.62363C20 9.92611 20 10.976 19.8877 11.8016C19.771 12.6589 19.5215 13.3807 18.9414 13.9539C18.3612 14.5272 17.6307 14.7738 16.7632 14.889C15.9276 15 14.8651 15 13.547 15H8.622C7.30387 15 6.24141 15 5.4058 14.889C4.53824 14.7738 3.80777 14.5272 3.22762 13.9539C2.87566 13.6062 2.64535 13.2037 2.49261 12.7495C3.36407 12.8574 4.4422 12.8573 5.68787 12.8573H10.6974C11.979 12.8573 13.0833 12.8574 13.9676 12.7399C14.9154 12.614 15.8238 12.3301 16.5607 11.602C17.2975 10.8739 17.5848 9.97624 17.7123 9.03978C17.8312 8.16597 17.8311 7.07481 17.831 5.80839V5.6203C17.8311 4.38912 17.8311 3.32356 17.7219 2.46234C18.1818 2.61328 18.5893 2.84088 18.9414 3.18881Z" fill="#292929"/>
<path d="M8.19263 4.04765C7.26108 4.04765 6.50591 4.79385 6.50591 5.71433C6.50591 6.63482 7.26108 7.38101 8.19263 7.38101C9.12418 7.38101 9.87934 6.63482 9.87934 5.71433C9.87934 4.79385 9.12418 4.04765 8.19263 4.04765Z" fill="#292929"/>
<path fill-rule="evenodd" clip-rule="evenodd" d="M0.846905 0.836845C0 1.67369 0 3.02057 0 5.71433C0 8.4081 0 9.75498 0.846905 10.5918C1.69381 11.4287 3.05688 11.4287 5.78303 11.4287H10.6022C13.3284 11.4287 14.6914 11.4287 15.5384 10.5918C16.3853 9.75498 16.3853 8.4081 16.3853 5.71433C16.3853 3.02057 16.3853 1.67369 15.5384 0.836845C14.6914 0 13.3284 0 10.6022 0H5.78303C3.05688 0 1.69381 0 0.846905 0.836845ZM5.06015 5.71433C5.06015 4.00487 6.46261 2.61907 8.19263 2.61907C9.92265 2.61907 11.3251 4.00487 11.3251 5.71433C11.3251 7.4238 9.92265 8.8096 8.19263 8.8096C6.46261 8.8096 5.06015 7.4238 5.06015 5.71433ZM13.4937 8.3334C13.0945 8.3334 12.7709 8.0136 12.7709 7.61911V3.80956C12.7709 3.41506 13.0945 3.09526 13.4937 3.09526C13.893 3.09526 14.2166 3.41506 14.2166 3.80956V7.61911C14.2166 8.0136 13.893 8.3334 13.4937 8.3334ZM2.16864 7.61911C2.16864 8.0136 2.49228 8.3334 2.89152 8.3334C3.29075 8.3334 3.61439 8.0136 3.61439 7.61911L3.61439 3.80956C3.61439 3.41506 3.29075 3.09526 2.89152 3.09526C2.49228 3.09526 2.16864 3.41506 2.16864 3.80956L2.16864 7.61911Z" fill="#292929"/>
</svg>
