<svg width="20" height="20" viewBox="0 0 20 20" fill="none" xmlns="http://www.w3.org/2000/svg">
<path d="M15.8337 10.0002C15.8337 10.4604 15.4606 10.8335 15.0003 10.8335C14.5401 10.8335 14.167 10.4604 14.167 10.0002C14.167 9.53993 14.5401 9.16683 15.0003 9.16683C15.4606 9.16683 15.8337 9.53993 15.8337 10.0002Z" fill="#899BB3"/>
<path fill-rule="evenodd" clip-rule="evenodd" d="M8.28664 2.7085H10.8807C12.4121 2.70848 13.6252 2.70847 14.5745 2.83611C15.5515 2.96747 16.3423 3.24423 16.966 3.86787C17.7363 4.63819 17.9818 5.66985 18.0709 7.00856C18.5519 7.22025 18.9152 7.66791 18.9552 8.23499C18.9587 8.28515 18.9587 8.33922 18.9587 8.38934C18.9587 8.39391 18.9587 8.39844 18.9587 8.40294V11.5974C18.9587 11.6019 18.9587 11.6064 18.9587 11.611C18.9587 11.6611 18.9587 11.7152 18.9552 11.7653C18.9152 12.3324 18.5519 12.7801 18.0709 12.9918C17.9818 14.3305 17.7363 15.3621 16.966 16.1325C16.3423 16.7561 15.5515 17.0329 14.5745 17.1642C13.6252 17.2919 12.4121 17.2918 10.8807 17.2918H8.28665C6.75518 17.2918 5.54215 17.2919 4.59281 17.1642C3.61579 17.0329 2.825 16.7561 2.20136 16.1325C1.57773 15.5088 1.30096 14.718 1.1696 13.741C1.04197 12.7917 1.04198 11.5786 1.04199 10.0472V9.95315C1.04198 8.42168 1.04197 7.20866 1.1696 6.25931C1.30096 5.28229 1.57773 4.4915 2.20136 3.86787C2.825 3.24423 3.61579 2.96747 4.59281 2.83611C5.54215 2.70847 6.75518 2.70848 8.28664 2.7085ZM16.8069 13.1252H15.1926C13.405 13.1252 11.8753 11.7689 11.8753 10.0002C11.8753 8.23146 13.405 6.87516 15.1926 6.87516H16.8069C16.7121 5.75728 16.4975 5.16719 16.0821 4.75175C15.7294 4.39907 15.2464 4.18768 14.408 4.07496C13.5516 3.95982 12.4227 3.9585 10.8337 3.9585H8.33366C6.74464 3.9585 5.61575 3.95982 4.75937 4.07496C3.92096 4.18768 3.43792 4.39907 3.08524 4.75175C2.73257 5.10442 2.52118 5.58746 2.40846 6.42587C2.29332 7.28226 2.29199 8.41115 2.29199 10.0002C2.29199 11.5892 2.29332 12.7181 2.40846 13.5745C2.52118 14.4129 2.73257 14.8959 3.08525 15.2486C3.43792 15.6013 3.92096 15.8126 4.75937 15.9254C5.61575 16.0405 6.74464 16.0418 8.33366 16.0418H10.8337C12.4227 16.0418 13.5516 16.0405 14.408 15.9254C15.2464 15.8126 15.7294 15.6013 16.0821 15.2486C16.4975 14.8331 16.7121 14.243 16.8069 13.1252ZM4.37533 6.66683C4.37533 6.32165 4.65515 6.04183 5.00033 6.04183H8.33366C8.67884 6.04183 8.95866 6.32165 8.95866 6.66683C8.95866 7.01201 8.67884 7.29183 8.33366 7.29183H5.00033C4.65515 7.29183 4.37533 7.01201 4.37533 6.66683ZM17.4366 8.12535C17.4197 8.12517 17.3975 8.12516 17.3614 8.12516H15.1926C14.0065 8.12516 13.1253 9.00744 13.1253 10.0002C13.1253 10.9929 14.0065 11.8752 15.1926 11.8752H17.3614C17.3975 11.8752 17.4197 11.8752 17.4366 11.875C17.447 11.8749 17.4525 11.8747 17.4551 11.8746L17.4569 11.8745C17.6287 11.8641 17.7026 11.7481 17.7082 11.6784C17.7082 11.6784 17.7084 11.6732 17.7085 11.6656C17.7086 11.6509 17.7087 11.6311 17.7087 11.5974V8.40294C17.7087 8.36918 17.7086 8.34947 17.7085 8.33468C17.7084 8.32715 17.7082 8.32191 17.7082 8.32191C17.7026 8.25218 17.6287 8.13625 17.4569 8.12579C17.4569 8.12579 17.4528 8.12552 17.4366 8.12535Z" fill="#899BB3"/>
</svg>
